<mxfile host="app.diagrams.net" agent="Mozilla/5.0 (Windows NT 10.0; Win64; x64) AppleWebKit/537.36 (KHTML, like Gecko) Chrome/126.0.0.0 Safari/537.36" version="24.7.7">
  <diagram name="第 1 页" id="XBe9ZtATBSlsIvdmplbK">
    <mxGraphModel dx="1434" dy="772" grid="1" gridSize="10" guides="1" tooltips="1" connect="1" arrows="1" fold="1" page="1" pageScale="1" pageWidth="827" pageHeight="1169" math="0" shadow="0">
      <root>
        <mxCell id="0" />
        <mxCell id="1" parent="0" />
        <mxCell id="hu2YA9th0eI2DhNNzv6I-10" style="edgeStyle=orthogonalEdgeStyle;rounded=0;orthogonalLoop=1;jettySize=auto;html=1;exitX=1;exitY=0.5;exitDx=0;exitDy=0;entryX=0;entryY=0.5;entryDx=0;entryDy=0;" edge="1" parent="1" source="hu2YA9th0eI2DhNNzv6I-2" target="hu2YA9th0eI2DhNNzv6I-3">
          <mxGeometry relative="1" as="geometry" />
        </mxCell>
        <mxCell id="hu2YA9th0eI2DhNNzv6I-11" style="edgeStyle=orthogonalEdgeStyle;rounded=0;orthogonalLoop=1;jettySize=auto;html=1;exitX=1;exitY=0.5;exitDx=0;exitDy=0;entryX=0;entryY=0.5;entryDx=0;entryDy=0;" edge="1" parent="1" source="hu2YA9th0eI2DhNNzv6I-2" target="hu2YA9th0eI2DhNNzv6I-4">
          <mxGeometry relative="1" as="geometry" />
        </mxCell>
        <mxCell id="hu2YA9th0eI2DhNNzv6I-12" style="edgeStyle=orthogonalEdgeStyle;rounded=0;orthogonalLoop=1;jettySize=auto;html=1;exitX=1;exitY=0.5;exitDx=0;exitDy=0;entryX=0;entryY=0.5;entryDx=0;entryDy=0;" edge="1" parent="1" source="hu2YA9th0eI2DhNNzv6I-2" target="hu2YA9th0eI2DhNNzv6I-5">
          <mxGeometry relative="1" as="geometry" />
        </mxCell>
        <mxCell id="hu2YA9th0eI2DhNNzv6I-2" value="Queue" style="rounded=1;whiteSpace=wrap;html=1;fillColor=#dae8fc;strokeColor=#6c8ebf;" vertex="1" parent="1">
          <mxGeometry x="20" y="350" width="120" height="60" as="geometry" />
        </mxCell>
        <mxCell id="hu2YA9th0eI2DhNNzv6I-8" style="edgeStyle=orthogonalEdgeStyle;rounded=0;orthogonalLoop=1;jettySize=auto;html=1;exitX=1;exitY=0.5;exitDx=0;exitDy=0;entryX=0;entryY=0.5;entryDx=0;entryDy=0;" edge="1" parent="1" source="hu2YA9th0eI2DhNNzv6I-3" target="hu2YA9th0eI2DhNNzv6I-6">
          <mxGeometry relative="1" as="geometry" />
        </mxCell>
        <mxCell id="hu2YA9th0eI2DhNNzv6I-9" style="edgeStyle=orthogonalEdgeStyle;rounded=0;orthogonalLoop=1;jettySize=auto;html=1;exitX=1;exitY=0.5;exitDx=0;exitDy=0;entryX=0;entryY=0.5;entryDx=0;entryDy=0;" edge="1" parent="1" source="hu2YA9th0eI2DhNNzv6I-3" target="hu2YA9th0eI2DhNNzv6I-7">
          <mxGeometry relative="1" as="geometry" />
        </mxCell>
        <mxCell id="hu2YA9th0eI2DhNNzv6I-3" value="按阻塞分类" style="rounded=1;whiteSpace=wrap;html=1;fillColor=#ffe6cc;strokeColor=#d79b00;" vertex="1" parent="1">
          <mxGeometry x="220" y="160" width="120" height="60" as="geometry" />
        </mxCell>
        <mxCell id="hu2YA9th0eI2DhNNzv6I-15" style="edgeStyle=orthogonalEdgeStyle;rounded=0;orthogonalLoop=1;jettySize=auto;html=1;exitX=1;exitY=0.5;exitDx=0;exitDy=0;" edge="1" parent="1" source="hu2YA9th0eI2DhNNzv6I-4" target="hu2YA9th0eI2DhNNzv6I-13">
          <mxGeometry relative="1" as="geometry" />
        </mxCell>
        <mxCell id="hu2YA9th0eI2DhNNzv6I-16" style="edgeStyle=orthogonalEdgeStyle;rounded=0;orthogonalLoop=1;jettySize=auto;html=1;exitX=1;exitY=0.5;exitDx=0;exitDy=0;entryX=0;entryY=0.5;entryDx=0;entryDy=0;" edge="1" parent="1" source="hu2YA9th0eI2DhNNzv6I-4" target="hu2YA9th0eI2DhNNzv6I-14">
          <mxGeometry relative="1" as="geometry" />
        </mxCell>
        <mxCell id="hu2YA9th0eI2DhNNzv6I-4" value="按大小分类" style="rounded=1;whiteSpace=wrap;html=1;fillColor=#f8cecc;strokeColor=#b85450;" vertex="1" parent="1">
          <mxGeometry x="220" y="350" width="120" height="60" as="geometry" />
        </mxCell>
        <mxCell id="hu2YA9th0eI2DhNNzv6I-5" value="按功能分类" style="rounded=1;whiteSpace=wrap;html=1;fillColor=#e1d5e7;strokeColor=#9673a6;" vertex="1" parent="1">
          <mxGeometry x="220" y="540" width="120" height="60" as="geometry" />
        </mxCell>
        <mxCell id="hu2YA9th0eI2DhNNzv6I-6" value="阻塞队列" style="rounded=1;whiteSpace=wrap;html=1;fillColor=#e3c800;fontColor=#000000;strokeColor=#B09500;" vertex="1" parent="1">
          <mxGeometry x="480" y="115" width="120" height="60" as="geometry" />
        </mxCell>
        <mxCell id="hu2YA9th0eI2DhNNzv6I-7" value="非阻塞队列" style="rounded=1;whiteSpace=wrap;html=1;fillColor=#e3c800;fontColor=#000000;strokeColor=#B09500;" vertex="1" parent="1">
          <mxGeometry x="480" y="205" width="120" height="60" as="geometry" />
        </mxCell>
        <mxCell id="hu2YA9th0eI2DhNNzv6I-13" value="有界队列" style="rounded=1;whiteSpace=wrap;html=1;fillColor=#f0a30a;fontColor=#000000;strokeColor=#BD7000;" vertex="1" parent="1">
          <mxGeometry x="480" y="305" width="120" height="60" as="geometry" />
        </mxCell>
        <mxCell id="hu2YA9th0eI2DhNNzv6I-14" value="无界队列" style="rounded=1;whiteSpace=wrap;html=1;fillColor=#f0a30a;fontColor=#000000;strokeColor=#BD7000;" vertex="1" parent="1">
          <mxGeometry x="480" y="395" width="120" height="60" as="geometry" />
        </mxCell>
      </root>
    </mxGraphModel>
  </diagram>
</mxfile>
